<?xml version="1.0" encoding="utf-8"?>
<!-- Generator: Adobe Illustrator 24.1.3, SVG Export Plug-In . SVG Version: 6.00 Build 0)  -->
<svg version="1.1" id="Слой_1" xmlns="http://www.w3.org/2000/svg" xmlns:xlink="http://www.w3.org/1999/xlink" x="0px" y="0px"
	 viewBox="0 0 48 46.5" style="enable-background:new 0 0 48 46.5;" xml:space="preserve">
<path d="M24,46.5L17.3,40H8v-9.3L1.3,24L8,17.3V8h9.3L24,1.3L30.7,8H40v9.3l6.7,6.7L40,30.7V40h-9.3L24,46.5z M24,37
	c3.6,0,6.7-1.3,9.2-3.8S37,27.6,37,24c0-3.6-1.3-6.7-3.8-9.2S27.6,11,24,11V37z M24,42.3l5.4-5.3H37v-7.5l5.5-5.5L37,18.5V11h-7.5
	l-5.4-5.4L18.6,11H11v7.5L5.6,24l5.4,5.5V37h7.5L24,42.3z"/>
</svg>
